<svg width="81" height="91" viewBox="0 0 81 91" fill="none" xmlns="http://www.w3.org/2000/svg">
<path d="M37.2092 35.4229V35.4509H43.3151V10.3158C43.3151 8.47838 44.8274 6.97757 46.6931 6.97757C46.8062 6.97757 46.9192 6.97757 47.0323 6.99159C48.7143 7.15991 50.0428 8.68878 50.057 10.4701V11.466V11.494H56.0639H56.1346H56.1628L56.1487 10.4561C56.1063 5.49078 52.4173 1.40913 47.5835 0.960292C47.2867 0.932239 46.9758 0.918213 46.679 0.918213C41.4494 0.918213 37.2092 5.14012 37.2092 10.3158V35.3387V35.4229Z" fill="#476051"/>
<path d="M56.1626 16.081V13.0652H50.0993H50.0852H50.0569V16.081C50.0569 16.8666 50.6929 17.4978 51.4844 17.4978H54.7492C55.5266 17.4838 56.1626 16.8525 56.1626 16.081Z" fill="#476051"/>
<path d="M28.9692 35.4512L29.6193 29.2095C29.7324 27.9191 28.7148 26.811 27.4003 26.811H23.7255C22.4252 26.811 21.3935 27.9191 21.5065 29.2095L22.1567 35.4512H28.9692Z" fill="#476051"/>
<path d="M51.4137 29.2094L52.0639 35.4509H58.8623L59.5124 29.2094C59.6255 27.919 58.6078 26.8109 57.2934 26.8109H53.6186C52.3183 26.7969 51.3007 27.905 51.4137 29.2094Z" fill="#476051"/>
<path d="M0.136108 41.0195V52.3388V52.3809V52.4089H80.9111V41.0195H0.136108Z" fill="#476051"/>
<path d="M2.6803 56.8694V81.7803C2.6803 83.5616 4.13609 84.9923 5.93109 84.9923H6.76499V90.687H11.6977V85.0063H69.2084H69.3498V90.687H74.2825V85.0063H75.1164C76.9114 85.0063 78.353 83.5616 78.353 81.7943V56.8694H2.6803ZM9.30908 76.1276V66.5055C9.30908 66.0146 9.95924 65.8463 10.1995 66.2811C11.5422 68.7077 13.2807 71.1062 15.3584 73.3364C16.8424 74.9214 18.4113 76.338 20.0367 77.5723C20.39 77.8388 20.1922 78.4139 19.7399 78.4139H11.5988C10.3409 78.4139 9.30908 77.39 9.30908 76.1276Z" fill="#476051"/>
</svg>
