<svg width="69" height="91" viewBox="0 0 69 91" fill="none" xmlns="http://www.w3.org/2000/svg">
<path d="M48.4787 35.1202H47.8797L46.7387 28.8924C46.2538 26.3046 43.986 24.4277 41.3474 24.4277H11.6668C9.02826 24.4277 6.7605 26.3046 6.27557 28.8924L5.13455 35.1202H4.53552C2.03956 35.1202 0 37.1535 0 39.6418V47.5616C0 50.0499 2.03956 52.0832 4.53552 52.0832H5.1916L8.35791 85.5684C8.65743 88.668 11.2247 90.9999 14.334 90.9999H38.666C41.7753 90.9999 44.3568 88.668 44.6421 85.5826L47.8084 52.0974H48.4645C50.9604 52.0974 52.9857 50.0641 52.9857 47.5759V39.656C53 37.1535 50.9604 35.1202 48.4787 35.1202ZM42.5883 52.0832L41.9607 58.7091H11.025L10.3975 52.0832H39.9212H42.5883ZM12.8649 78.1462H37.8816H40.1494L39.4933 85.0849C39.4505 85.5115 39.1082 85.8243 38.6803 85.8243H14.334C13.9061 85.8243 13.5638 85.5115 13.521 85.0849L12.8649 78.1462ZM15.3466 35.1202H10.3832L11.3673 29.8451C11.3959 29.7029 11.51 29.6034 11.6526 29.6034H41.3332C41.4758 29.6034 41.6041 29.7029 41.6184 29.8451L42.4456 34.3524L42.5883 35.1345H15.3466V35.1202ZM47.8227 46.9076H5.1916V40.367H47.8227V46.9076Z" fill="white"/>
<path d="M32.3049 21.3281L35.3143 8.71609L46.6103 5.50266H46.6246L46.6531 5.48844L45.07 0L30.5078 4.13766L27.1846 18.072L26.4001 21.2997H26.4144L26.4001 21.3281H32.3049Z" fill="white"/>
<path d="M66.5261 59.9108H66.1983L65.574 56.5574C65.3087 55.1639 64.0678 54.1533 62.6241 54.1533H46.3837C44.94 54.1533 43.6991 55.1639 43.4338 56.5574L42.8095 59.9108H42.4817C41.116 59.9108 40 61.0057 40 62.3455V66.61C40 67.9499 41.116 69.0447 42.4817 69.0447H42.8407L44.5732 87.0752C44.7371 88.7443 46.1418 89.9999 47.8431 89.9999H61.1569C62.8582 89.9999 64.2707 88.7443 64.4268 87.0829L66.1593 69.0524H66.5183C67.884 69.0524 68.9922 67.9575 68.9922 66.6177V62.3532C69 61.0057 67.884 59.9108 66.5261 59.9108ZM63.303 69.0447L62.9596 72.6125H46.0326L45.6892 69.0447H61.8436H63.303ZM47.0393 83.0786H60.7277H61.9685L61.6095 86.8149C61.5861 87.0446 61.3988 87.213 61.1647 87.213H47.8431C47.609 87.213 47.4217 87.0446 47.3983 86.8149L47.0393 83.0786ZM48.3972 59.9108H45.6814L46.2199 57.0704C46.2355 56.9938 46.2979 56.9402 46.3759 56.9402H62.6163C62.6943 56.9402 62.7645 56.9938 62.7723 57.0704L63.225 59.4974L63.303 59.9185H48.3972V59.9108ZM66.1671 66.2579H42.8407V62.736H66.1671V66.2579Z" fill="white"/>
<path d="M57.6762 52.4844L59.3229 45.6933L65.5037 43.963H65.5115L65.5271 43.9553L64.6609 41L56.6929 43.228L54.8745 50.7311L54.4453 52.4691H54.4531L54.4453 52.4844H57.6762Z" fill="white"/>
</svg>
