<svg width="74" height="70" viewBox="0 0 74 70" fill="none" xmlns="http://www.w3.org/2000/svg">
<g clip-path="url(#clip0)">
<path d="M15.0775 30.4262C22.7666 24.8271 35.0691 17.8916 39.5553 16.728C40.6306 16.4515 41.6944 16.2442 42.7697 16.0829C42.8044 16.0829 42.8275 16.0714 42.8622 16.0714L43.1512 18.8133H53.0488L53.9622 10.4262C54.02 9.9308 53.835 9.42389 53.4881 9.06674C53.2453 8.82481 52.9447 8.66352 52.6209 8.60591C51.5687 8.41006 49.0944 8.00684 46.8281 8.00684C43.8334 8.00684 40.7347 8.42158 37.6244 9.22803C33.2306 10.3571 22.1422 16.3133 15.0891 20.9331V17.8455H3.17969V57.8686H15.0775V30.4262Z" fill="white"/>
<path d="M15.0775 10.8872C15.0775 7.38487 17.8294 4.50468 21.3444 4.33187L33.2422 3.75584C34.2481 3.70975 35.0344 2.88026 35.0344 1.87796C35.0344 0.806527 34.1325 -0.0460079 33.0572 7.50654e-05L12.4528 1.00238C7.26125 1.25584 3.17969 5.53003 3.17969 10.7028V12.2121V14.931H15.0775V10.8872Z" fill="white"/>
<path d="M21.4369 31.7628C21.4022 33.1337 21.4716 34.5277 21.6682 35.9563C22.1769 39.7006 23.5182 43.1798 25.4953 46.2098C27.8425 49.8503 31.1032 52.8342 34.9419 54.8734C38.1447 56.5784 41.7291 57.6268 45.5216 57.8342C60.2291 58.6176 72.3928 46.9701 72.3928 32.4886C72.3928 32.2466 72.3928 32.0047 72.3813 31.7628C72.3235 29.7236 70.6585 28.0876 68.6119 28.0876H25.2178C23.1713 28.0876 21.4947 29.7236 21.4369 31.7628ZM30.1088 37.8688C30.4441 36.9471 31.0916 36.2213 31.9935 35.9102C33.7741 35.2766 35.8553 36.5439 36.63 38.7213C37.4047 40.9102 36.5838 43.1913 34.7916 43.825C33.011 44.4471 30.9297 43.1913 30.155 41.0024C29.7619 39.9079 29.7735 38.7904 30.1088 37.8688Z" fill="white"/>
<path d="M74 62.2236H0V69.9886H74V62.2236Z" fill="white"/>
</g>
<defs>
<clipPath id="clip0">
<rect width="74" height="70" fill="white"/>
</clipPath>
</defs>
</svg>
