<svg width="88" height="71" viewBox="0 0 88 71" fill="none" xmlns="http://www.w3.org/2000/svg">
<path d="M40.5074 45.3258C40.5074 44.7932 40.3562 44.7932 40.2599 44.7932C39.7374 44.7932 39.2012 45.1892 38.6649 45.9813C38.2799 46.5686 37.9362 47.265 37.6612 48.0298C38.3762 47.8523 38.9949 47.5108 39.5587 46.9919C40.1774 46.4047 40.5074 45.8311 40.5074 45.3258Z" fill="#476051"/>
<path d="M82.0051 31.3006V31.2733C81.4276 31.3689 80.8363 31.4098 80.2313 31.4098C76.8488 31.4098 73.8376 29.9213 71.9263 27.6133C71.6651 27.2856 71.4176 26.9442 71.1976 26.5891C71.1976 26.5891 71.1976 26.5891 71.1976 26.6028C71.1976 26.5891 71.1838 26.5891 71.1838 26.5754C69.3551 29.457 65.9726 31.4098 62.1088 31.4098C58.7401 31.4098 55.7288 29.9213 53.8038 27.6133C53.5426 27.2856 53.2951 26.9442 53.0613 26.5891C53.0613 26.5891 53.0613 26.5891 53.0613 26.6028C53.0613 26.5891 53.0476 26.5891 53.0476 26.5754C51.2463 29.457 47.8638 31.4098 44.0001 31.4098C40.6176 31.4098 37.6063 29.9213 35.6951 27.6133C35.4338 27.2856 35.1863 26.9442 34.9663 26.5891C34.9663 26.5891 34.9663 26.5891 34.9663 26.6028C34.9663 26.5891 34.9526 26.5891 34.9526 26.5754C33.1238 29.457 29.7413 31.4098 25.8776 31.4098C22.4951 31.4098 19.4976 29.9213 17.5726 27.6133C17.3113 27.2856 17.0638 26.9442 16.8438 26.5891C16.8438 26.5891 16.8438 26.5891 16.8438 26.6028C16.8438 26.5891 16.8301 26.5891 16.8301 26.5754C15.0013 29.457 11.6188 31.4098 7.75506 31.4098C6.33881 31.4098 5.00506 31.1367 3.78131 30.6724C3.61631 30.6041 3.43756 30.5495 3.27256 30.4675V30.4812C3.25881 30.4812 3.25881 30.4812 3.24506 30.4675V71H81.9913V36.5174V31.3006C82.0051 31.3006 82.0051 31.3006 82.0051 31.3006ZM75.8038 66.6162H60.3901V53.984H75.8038V66.5616V66.6162ZM75.8038 50.8157H60.4038H60.3901V34.1548H69.2176C72.8476 34.1548 75.8038 37.0773 75.8038 40.6962V50.7884V50.8157ZM52.8138 47.9205C52.6488 48.2483 52.4838 48.5897 52.3326 48.9311C51.8238 50.0646 51.6726 50.6655 51.6588 50.9796C51.6863 50.9796 51.7138 50.9796 51.7551 50.9796C51.9613 50.9796 52.1401 50.9386 52.2913 50.8567C52.6351 50.6791 52.7863 50.6382 52.9101 50.6382C53.2676 50.6382 53.5288 50.884 53.5288 51.2527C53.5288 51.9628 53.1713 52.5637 52.4701 53.0144C52.0163 53.3148 51.5763 53.4787 51.1638 53.4787C50.7926 53.4787 50.4763 53.4377 50.2151 53.3558C49.9401 53.2738 49.7063 53.1236 49.5001 52.9324C49.0326 52.5227 48.7988 51.9355 48.7988 51.2254C48.7988 50.4196 49.0326 49.4637 49.5276 48.3029C49.8713 47.5381 50.1188 47.0055 50.2563 46.7187L50.5726 46.0496C50.7376 45.7082 50.7926 45.5033 50.8201 45.3804V45.3668V45.3394C50.7926 45.3394 50.7513 45.3394 50.7101 45.3394C50.7101 45.3394 50.5588 45.3804 50.1601 45.7764C49.8026 46.1452 49.4863 46.4866 49.2251 46.787L48.4138 47.7566L46.8738 49.7095C46.5163 50.3787 46.2276 50.9522 46.0351 51.4029L45.5126 52.5091C45.3613 52.8232 45.2238 53.0417 45.1001 53.1919C44.9213 53.3968 44.6738 53.4923 44.3851 53.4923C44.1651 53.4923 43.9451 53.4514 43.7526 53.3694C43.5601 53.2875 43.3813 53.1919 43.2301 53.069C42.8863 52.7822 42.7213 52.4545 42.7213 52.0857C42.7213 51.9082 42.7901 51.7034 42.9688 51.3346L43.3263 50.5699C43.4363 50.3377 43.5738 50.0509 43.7251 49.7095L44.2613 48.4121C45.1688 46.1588 45.3613 45.2712 45.3613 44.9434C45.3613 44.7112 45.2788 44.6566 45.2376 44.6293L45.0588 44.4927C44.9626 44.4245 44.7838 44.2606 44.7838 43.9192C44.7838 43.7143 44.8663 43.5095 45.0038 43.3319C45.1276 43.1954 45.2788 43.0725 45.4713 42.9632C45.8288 42.7857 46.1863 42.6901 46.5438 42.6901C46.8876 42.6901 47.1626 42.7311 47.3688 42.813C47.5751 42.8949 47.7676 43.0178 47.9188 43.1681C48.2351 43.4685 48.4001 43.7963 48.4001 44.1513C48.4001 44.3562 48.3726 44.561 48.3313 44.7522C48.3176 44.7932 48.3176 44.8341 48.2901 44.8751L48.3176 44.8478C48.3176 44.8615 48.3176 44.8751 48.3176 44.9024L48.6201 44.5474C49.1426 43.9328 49.5551 43.5368 49.8713 43.3319C50.5176 42.8949 51.0263 42.6901 51.4388 42.6901C51.8101 42.6901 52.1401 42.7447 52.4151 42.8403C52.6901 42.9359 52.9376 43.0861 53.1301 43.2773C53.5701 43.687 53.7901 44.2059 53.7901 44.8205C53.7901 45.3804 53.6663 45.954 53.4188 46.5549C53.1988 47.1148 52.9926 47.5654 52.8138 47.9205ZM37.4413 43.8099C38.4313 43.0725 39.4488 42.7037 40.4663 42.7037C41.7176 42.7037 42.6113 43.2637 43.0376 44.3015C43.1888 44.6566 43.2576 45.08 43.2438 45.5443C43.2438 46.0086 43.1476 46.4593 42.9688 46.8553C42.7901 47.2513 42.5563 47.6201 42.2538 47.9342C41.9651 48.2483 41.6076 48.5351 41.1951 48.7809C40.7963 49.0267 40.3563 49.2315 39.8888 49.3954C39.0501 49.6822 38.1426 49.8597 37.1938 49.9007V49.9144C37.1938 50.0646 37.2076 50.2285 37.2488 50.4196C37.2763 50.5835 37.3451 50.7337 37.4276 50.8703C37.5926 51.1298 37.7851 51.2527 38.0738 51.2527C38.7338 51.2527 39.3938 51.0615 40.0263 50.6655C40.2601 50.5289 40.4251 50.406 40.5626 50.2694C40.7963 50.0236 41.0301 49.9144 41.2638 49.9144C41.4151 49.9144 41.7038 49.969 41.9238 50.3104C42.0476 50.5152 42.1163 50.7474 42.1163 50.9932C42.1163 51.4166 41.9926 51.7989 41.7451 52.1267L41.7313 52.154L41.7176 52.1677C40.8376 53.0417 39.5313 53.4923 37.8263 53.4923C36.7813 53.4923 35.9151 53.1646 35.2688 52.5364C34.5401 51.8263 34.1963 50.843 34.2376 49.6412C34.2651 49.054 34.3613 48.4804 34.5401 47.9478C34.7051 47.4152 34.9388 46.8963 35.2138 46.4046C35.4888 45.913 35.8326 45.435 36.2038 44.998C36.5751 44.5337 37.0013 44.1377 37.4413 43.8099ZM11.3163 46.1315C11.5363 45.2712 11.8388 44.4245 12.2238 43.6187C12.6088 42.813 13.0626 42.0482 13.5851 41.3517C14.1076 40.6416 14.6988 40.0134 15.3313 39.4945C16.7063 38.3473 18.1776 37.7601 19.7038 37.7601C21.6288 37.7601 22.9076 38.6478 23.4988 40.3958C23.7051 40.9967 23.8013 41.7341 23.7738 42.5808C23.7463 43.4139 23.6226 44.2879 23.3888 45.1482C23.1551 46.0086 22.8388 46.8553 22.4401 47.6474C22.0413 48.4531 21.5738 49.2179 21.0376 49.9144C20.5013 50.6245 19.9101 51.239 19.2776 51.758C17.9163 52.9051 16.5138 53.4923 15.1113 53.4923C13.8326 53.4923 12.7876 53.069 12.0313 52.2223C11.2613 51.3619 10.8901 50.1602 10.9313 48.6306C10.9726 47.8386 11.0963 46.9919 11.3163 46.1315ZM26.9088 42.8403C27.1288 42.9359 27.3213 43.0588 27.4726 43.2363C27.6788 43.4548 27.7888 43.6733 27.8438 43.9055C27.8576 43.9601 27.8851 44.0148 27.8713 44.0694C27.8713 44.0694 27.8851 44.0694 27.8851 44.0557C27.8851 44.0694 27.8851 44.0694 27.8988 44.083C28.8063 43.1681 29.7688 42.7037 30.7451 42.7037C32.0101 42.7037 32.9176 43.3866 33.3438 44.6703C33.4813 45.1073 33.5501 45.6262 33.5501 46.2408C33.5501 46.8417 33.4538 47.4562 33.2751 48.0571C33.0963 48.658 32.8488 49.2315 32.5326 49.7641C32.2301 50.2967 31.8588 50.7884 31.4601 51.239C31.0476 51.6897 30.6213 52.0857 30.1538 52.4135C29.1638 53.1236 28.2013 53.4787 27.2938 53.4787C26.7163 53.4787 26.2488 53.3148 25.8363 53.028C25.7951 52.9871 25.7263 52.9734 25.6851 52.9324C25.6713 52.9324 25.6713 52.9188 25.6576 52.9188C25.6026 53.11 25.5338 53.3694 25.4376 53.6699C25.1763 54.5712 24.9426 55.3087 24.7638 55.8549C24.2001 57.5347 23.8701 58.0126 23.6776 58.2311C23.3888 58.5452 23.0176 58.7091 22.6051 58.7091C22.2476 58.7091 21.7388 58.5726 21.4088 57.958C21.3263 57.8078 21.2713 57.6166 21.2713 57.4254C21.2713 57.2889 21.3126 57.0704 21.6013 56.4422C22.0963 55.4179 22.7701 53.3558 23.6088 50.3104C23.9388 49.095 24.1726 48.2619 24.2826 47.8386L24.5851 46.6368C24.7776 45.872 24.8876 45.3531 24.9288 45.08C24.9563 44.8205 24.9288 44.7386 24.9288 44.7386C24.8876 44.6703 24.8463 44.6293 24.8188 44.602C24.7363 44.5474 24.6676 44.5064 24.5988 44.4654C24.3788 44.3425 24.2688 44.0967 24.2963 43.8236C24.3238 43.6187 24.4063 43.4275 24.5713 43.2637C24.6951 43.1271 24.8601 43.0178 25.0388 42.9222C25.3963 42.7584 25.7401 42.6764 26.0976 42.6764C26.4138 42.7037 26.6888 42.7447 26.9088 42.8403ZM15.1801 60.8259V58.9823H50.0501V60.8259H15.2626H15.1801Z" fill="#476051"/>
<path d="M14.1488 50.9523C14.3825 51.2801 14.6438 51.4303 15.0013 51.4303C15.4 51.4303 15.8125 51.2938 16.225 51.0343C16.6788 50.7475 17.1188 50.3515 17.545 49.8598C17.985 49.3545 18.4113 48.7673 18.81 48.1255C19.2088 47.47 19.5663 46.7735 19.8688 46.0497C20.735 43.9876 21.065 42.2941 20.845 40.9831C20.7075 40.2184 20.35 39.877 19.6625 39.877C18.975 39.877 18.15 40.3959 17.2288 41.3928C16.3213 42.3897 15.5238 43.6461 14.8638 45.1484C14.5475 45.8585 14.2863 46.5959 14.0938 47.347C13.9013 48.0845 13.7913 48.7127 13.7775 49.218C13.7638 49.7096 13.7913 50.092 13.86 50.3515C13.9288 50.5836 14.025 50.7885 14.1488 50.9523Z" fill="#476051"/>
<path d="M27.1013 51.4165C27.3488 51.4165 27.5825 51.3483 27.8438 51.2117C28.1188 51.0615 28.3938 50.8566 28.655 50.5971C28.93 50.3377 29.1775 50.0099 29.4113 49.6549C29.645 49.2861 29.865 48.9037 30.03 48.494C30.415 47.6064 30.5938 46.7597 30.5938 45.9813C30.5938 45.4896 30.5113 45.2301 30.4563 45.0936C30.3875 44.9434 30.3188 44.9434 30.2775 44.9434C30.1125 44.9434 29.9338 45.0116 29.7275 45.1619C29.48 45.3394 29.205 45.5852 28.93 45.872C28.6413 46.1861 28.3525 46.5412 28.0775 46.9372C27.8025 47.3332 27.5413 47.7566 27.3213 48.1799C27.1013 48.6033 26.9225 49.0266 26.785 49.45C26.6613 49.846 26.5925 50.2148 26.5925 50.5425C26.5925 50.8293 26.6475 51.0615 26.7575 51.2253C26.7988 51.3346 26.8813 51.4165 27.1013 51.4165Z" fill="#476051"/>
<path d="M16.225 10.6248L18.975 2.62206L19.8687 0.0409848H19.855L19.8687 0.0136719H6.70999L2.87374 7.2516L1.08624 10.5974H1.09999L1.08624 10.6248H16.225Z" fill="#476051"/>
<path d="M18.7549 10.5974H18.7687L18.7549 10.6248H33.9074L35.0762 1.21544L35.2274 0.0409848H35.2137L35.2274 0.0136719H22.0549L19.5112 8.1939L18.7549 10.5974Z" fill="#476051"/>
<path d="M51.5762 10.6248L50.5862 0.0136719H37.4137L36.5062 9.76439L36.4237 10.5974V10.6248H51.5762Z" fill="#476051"/>
<path d="M54.0925 10.6247H69.245L65.9312 0.0136565H54.2712L52.8 0V0.0136565H52.7725L54.0925 10.6247Z" fill="#476051"/>
<path d="M71.775 10.6247H86.9138L81.29 0.0136565H71.4038L68.1588 0V0.0136565H68.1313L71.775 10.6247Z" fill="#476051"/>
<path d="M56.045 26.084C56.1688 26.2205 56.32 26.3434 56.4575 26.48C56.6363 26.6439 56.7875 26.8214 56.98 26.9716C57.0488 27.0263 57.1175 27.0536 57.1863 27.1082C58.5338 28.1051 60.2388 28.7197 62.095 28.7197C63.7038 28.7197 65.1888 28.2553 66.4263 27.4906C66.7013 27.3267 66.9763 27.1628 67.2238 26.9716C67.5813 26.6848 67.9113 26.3571 68.2138 26.0157C68.8188 25.3192 69.2725 24.4998 69.5475 23.6258C69.6438 23.3117 69.74 22.9976 69.795 22.6698C69.795 22.6562 69.795 22.6562 69.795 22.6425C69.8363 22.3421 69.8638 22.0416 69.8638 21.7275V13.2878H69.7538H54.4638H54.4225H54.3813H54.3538V21.7139C54.3538 22.028 54.3675 22.3284 54.4225 22.6425V22.6562C54.615 23.9399 55.1925 25.1143 56.045 26.084Z" fill="#476051"/>
<path d="M3.25875 27.4223C4.5375 28.2417 6.09125 28.7333 7.76875 28.7333C9.36375 28.7333 10.835 28.2826 12.0588 27.5315C12.3475 27.354 12.6225 27.1901 12.8837 26.9853C13.8737 26.2069 14.6163 25.1963 15.0562 24.0765C15.235 23.6258 15.3725 23.1615 15.455 22.6835V22.6698C15.4963 22.3557 15.5238 22.0553 15.5238 21.7412V13.2878H15.4137H0.06875H0.0275H0V21.7139C0 24.0491 1.27875 26.1386 3.25875 27.4223Z" fill="#476051"/>
<path d="M23.9387 28.4738C24.5575 28.6241 25.2037 28.7197 25.8775 28.7197C27.005 28.7197 28.0775 28.4738 29.04 28.0778C29.755 27.791 30.415 27.4223 31.0062 26.9716C32.3674 25.8791 33.3162 24.3632 33.5775 22.6562C33.5775 22.6425 33.5775 22.6425 33.5775 22.6289C33.6187 22.3284 33.6462 22.028 33.6462 21.7139V13.2878H33.5224H18.2325H18.1775H18.1362H18.1087V21.7139C18.1087 22.028 18.1362 22.3284 18.1775 22.6425V22.6562C18.6037 25.4831 20.9275 27.7637 23.9387 28.4738Z" fill="#476051"/>
<path d="M36.3001 22.6562C36.3826 23.2024 36.5613 23.7077 36.7676 24.213C37.8951 26.8351 40.7001 28.7197 43.9863 28.7197C47.9051 28.7197 51.1638 26.0703 51.6863 22.6562V22.6425C51.7413 22.3284 51.7551 22.028 51.7551 21.7139V13.2878H51.6451H36.3413H36.3001H36.2588H36.2313V21.7139C36.2313 22.028 36.2588 22.3284 36.3001 22.6289C36.3001 22.6425 36.3001 22.6425 36.3001 22.6562Z" fill="#476051"/>
<path d="M72.5862 13.2878H72.5312H72.49H72.4625V21.7139C72.4625 22.028 72.49 22.3284 72.5312 22.6289C72.5312 22.6425 72.5312 22.6425 72.5312 22.6562C72.9712 25.4967 75.295 27.7774 78.32 28.4738C78.9387 28.6104 79.5712 28.7197 80.2312 28.7197C80.8362 28.7197 81.4412 28.6514 82.005 28.5285C85.4287 27.8047 88 25.0188 88 21.7139V13.2878H72.5862Z" fill="#476051"/>
</svg>
