<svg width="82" height="78" viewBox="0 0 82 78" fill="none" xmlns="http://www.w3.org/2000/svg">
<g clip-path="url(#clip0)">
<path d="M16.4412 55.0315V55.0861V55.1135H20.1391V36.3645V36.3372H30.9442C34.051 36.3372 36.5804 33.8246 36.5804 30.7384V5.59874C36.5804 2.51261 34.051 0 30.9442 0H5.63621C2.52942 0 0 2.51261 0 5.59874V30.7384C0 33.8246 2.52942 36.3372 5.63621 36.3372H16.4412V55.0315ZM4.23403 5.59874C4.23403 4.82038 4.86639 4.19223 5.64996 4.19223H30.9579C31.7415 4.19223 32.3738 4.82038 32.3738 5.59874V30.7384C32.3738 31.5168 31.7415 32.145 30.9579 32.145H5.63621C4.85264 32.145 4.22028 31.5168 4.22028 30.7384V5.59874H4.23403Z" fill="white"/>
<path d="M13.0458 27.1062V27.1335H16.565V20.3877H20.0429C20.9777 20.3877 21.8163 20.2375 22.5586 19.9507C23.3009 19.6639 23.9333 19.2543 24.4282 18.7354C24.9368 18.2164 25.3217 17.6293 25.5967 16.9465C25.8716 16.2637 26.0091 15.5536 26.0091 14.7889C26.0091 14.0379 25.8716 13.3141 25.5967 12.6314C25.3217 11.9486 24.9368 11.3614 24.4282 10.8425C23.9195 10.3236 23.3009 9.92758 22.5586 9.62716C21.8163 9.32674 20.9777 9.19019 20.0429 9.19019H13.0458V27.0379V27.1062ZM16.565 17.2333V12.3173H19.8642C20.6753 12.3173 21.3214 12.5494 21.775 13.0001C22.2424 13.4507 22.4761 14.0515 22.4761 14.7889C22.4761 15.5263 22.2424 16.1272 21.775 16.5641C21.3076 17.0148 20.6753 17.2333 19.8642 17.2333H16.565Z" fill="white"/>
<path d="M7.39577 19.0767C7.9044 19.0767 8.31681 18.667 8.31681 18.1617C8.31681 17.6565 7.9044 17.2468 7.39577 17.2468C6.88714 17.2468 6.47473 17.6565 6.47473 18.1617C6.47473 18.667 6.88714 19.0767 7.39577 19.0767Z" fill="white"/>
<path d="M29.1846 19.0767C29.6932 19.0767 30.1056 18.667 30.1056 18.1617C30.1056 17.6565 29.6932 17.2468 29.1846 17.2468C28.676 17.2468 28.2635 17.6565 28.2635 18.1617C28.2635 18.667 28.676 19.0767 29.1846 19.0767Z" fill="white"/>
<path d="M75.5802 28.8131C72.281 25.5357 65.7237 21.2206 61.1873 22.7637C60.6511 22.9412 60.1562 23.2553 59.7713 23.6376L51.8256 30.5063C51.4545 30.8204 51.0833 31.1481 50.7121 31.4759L47.6054 30.3834C47.0692 30.1923 46.4919 30.2196 45.9695 30.4654C45.4471 30.7112 45.0622 31.1345 44.8835 31.6807L44.7185 32.1313C44.3336 33.2374 44.911 34.4528 46.0245 34.8351L46.4919 34.999L46.6706 35.0809C45.3096 36.3236 43.9349 37.6208 42.4915 39.0273C39.536 42.0452 36.6629 45.145 33.941 48.2584L27.2875 55.8782C26.8614 56.3015 26.5452 56.7931 26.3527 57.3257C24.8131 61.8456 29.1571 68.3593 32.4563 71.6366C35.7556 74.9139 42.3128 79.229 46.8493 77.686C47.3854 77.5084 47.8803 77.1944 48.2652 76.812L56.2109 69.9433C59.4139 67.1849 62.5482 64.3173 65.545 61.4223C66.5485 60.3981 67.5795 59.3194 68.6106 58.2269C68.8305 57.9948 69.0505 57.7763 69.2704 57.5441L69.4904 58.1723C69.8753 59.2784 71.0987 59.8519 72.2122 59.4696L72.6659 59.3057C73.7794 58.9234 74.3705 57.708 73.9718 56.6019L72.8858 53.5431C73.2845 53.0925 73.6831 52.6418 74.0818 52.1912L78.9344 46.6471L79.1544 46.4286C79.4293 46.1555 79.6768 45.8551 79.9105 45.5273L80.749 44.5715C81.1752 44.1481 81.4914 43.6565 81.6838 43.124C83.2097 38.5904 78.8795 32.0767 75.5802 28.8131ZM46.4369 73.6439L45.1722 74.7364L45.1034 74.8047C45.0622 74.8456 45.0347 74.8593 45.0347 74.8593C42.9452 75.5694 37.8863 73.0977 34.4359 69.6702C30.9442 66.2017 28.511 61.2857 29.2121 59.1282L29.322 59.0189L30.4218 57.7626C30.8342 57.2847 31.5903 57.5032 31.7277 58.1177C32.3189 60.6849 34.4221 64.2353 37.1578 66.9528C39.8521 69.6292 43.4813 71.7458 46.0657 72.333C46.7118 72.4696 46.9043 73.2206 46.4369 73.6439ZM40.7594 48.2721L34.4496 54.5399L33.3224 54.5946L32.5251 54.6219L39.6597 47.1797L40.7594 48.2721ZM42.2578 46.7836L41.1306 45.6639L46.8355 39.7238L49.0625 38.6586L46.5056 42.5778L42.2578 46.7836ZM58.6028 63.02L57.4756 61.9002L61.7096 57.6944L65.655 55.1544L64.5965 57.353L58.6028 63.02ZM66.6035 28.7994L58.4104 29.8645C58.3004 29.8782 58.2042 29.8372 58.1355 29.7689C58.0117 29.646 57.9842 29.4412 58.1355 29.291L60.0188 27.4202C61.4622 25.9864 63.7442 25.8498 65.3526 27.1061L66.7822 28.2122L66.8097 28.2395C66.9884 28.4307 66.8922 28.7721 66.6035 28.7994ZM52.458 36.6103C54.5338 37.6208 56.6508 39 58.6853 40.6797C58.9603 40.9118 59.2352 41.1303 59.5101 41.3761L56.4721 42.7416C56.3209 42.8099 56.2384 42.9874 56.2796 43.1513C56.3346 43.3288 56.5271 43.4244 56.7195 43.3698L58.5479 42.7963L60.4587 42.2227C60.6924 42.4412 60.9261 42.6597 61.146 42.8918C61.8883 43.6292 62.5619 44.3803 63.208 45.1313C63.3043 45.2406 63.4005 45.3498 63.4967 45.4727L56.802 48.3131C56.637 48.3813 56.5546 48.5589 56.5958 48.7227C56.6508 48.9002 56.8432 49.0095 57.022 48.9549L64.5002 46.77C65.6825 48.3404 66.6722 49.9517 67.4421 51.5357C67.4696 51.5904 67.4971 51.6313 67.5108 51.686L61.2285 55.2091L48.7326 42.7963L52.2793 36.5557C52.3618 36.5557 52.403 36.583 52.458 36.6103ZM49.5574 71.5547L49.6536 69.6565L55.9634 63.3887L57.0632 64.4811L52.6917 68.6324L49.5574 71.5547ZM77.0374 44.3257L75.1541 46.1965C75.0028 46.3467 74.7966 46.3194 74.6729 46.1965C74.6042 46.1282 74.5629 46.0326 74.5767 45.9097L75.6489 37.771C75.6902 37.4843 76.0339 37.3887 76.2263 37.5799L76.2538 37.6072L77.3673 39.0273C78.6183 40.625 78.4808 42.8918 77.0374 44.3257ZM76.3225 35.4633C75.9514 35.4086 75.5665 35.436 75.1953 35.5589C75.0166 35.6271 74.8516 35.7091 74.6867 35.8047L68.5831 29.7416C68.6793 29.5914 68.7618 29.4139 68.8305 29.2364C68.968 28.854 68.9955 28.458 68.9267 28.0757C70.3839 28.8677 71.8961 29.9738 73.147 31.2164C74.1918 32.2542 75.1128 33.4423 75.8551 34.6303C76.0201 34.9171 76.1851 35.1902 76.3225 35.4633Z" fill="white"/>
</g>
<defs>
<clipPath id="clip0">
<rect width="82" height="78" fill="white"/>
</clipPath>
</defs>
</svg>
